<svg xmlns="http://www.w3.org/2000/svg" version="1.1" xmlns:xlink="http://www.w3.org/1999/xlink" xmlns:svgjs="http://svgjs.dev/svgjs" width="1500" height="1500" viewBox="0 0 1500 1500"><rect width="1500" height="1500" fill="#ffffff"></rect><g transform="matrix(0.6666666666666666,0,0,0.6666666666666666,249.39393939393938,577.9511980045079)"><svg viewBox="0 0 396 137" data-background-color="#fff6db" preserveAspectRatio="xMidYMid meet" height="518" width="1500" xmlns="http://www.w3.org/2000/svg" xmlns:xlink="http://www.w3.org/1999/xlink"><g id="tight-bounds" transform="matrix(1,0,0,1,0.2400000000000091,-0.2451181272709846)"><svg viewBox="0 0 395.52 137.490236254542" height="137.490236254542" width="395.52"><g><svg viewBox="0 0 640.8787226690938 222.7815710717102" height="137.490236254542" width="395.52"><g transform="matrix(1,0,0,1,245.35872266909388,11.34439335501844)"><svg viewBox="0 0 395.52 200.09278436167332" height="200.09278436167332" width="395.52"><g id="textblocktransform"><svg viewBox="0 0 395.52 200.09278436167332" height="200.09278436167332" width="395.52" id="textblock"><g><svg viewBox="0 0 395.52 117.82143152668597" height="117.82143152668597" width="395.52"><g transform="matrix(1,0,0,1,0,0)"><svg width="395.52" viewBox="2.15 -35.5 120.83 36" height="117.82143152668597" data-palette-color="#9c9a40"><path d="M12.55-19.3L12.55-5.4Q12.55-2.85 11.23-1.43 9.9 0 7.3 0L7.3 0 2.15 0 2.15-35 7.2-35Q10-35 11.05-33.48 12.1-31.95 12.1-29.8L12.1-29.8Q12.1-28.25 11.6-26.7 11.1-25.15 9.65-24.5L9.65-24.5Q11.25-23.8 11.9-22.43 12.55-21.05 12.55-19.3L12.55-19.3ZM3.15-25L7.2-25Q8.8-25 9.65-25.7 10.5-26.4 10.8-27.53 11.1-28.65 11.1-29.8L11.1-29.8Q11.1-31.55 10.25-32.77 9.4-34 7.2-34L7.2-34 3.15-34 3.15-25ZM3.15-1L7.3-1Q9.45-1 10.5-2.2 11.55-3.4 11.55-5.45L11.55-5.45 11.55-19.3Q11.55-20.5 11.15-21.58 10.75-22.65 9.83-23.33 8.9-24 7.2-24L7.2-24 3.15-24 3.15-1ZM26.05-19.75L26.05-0.55Q26.2-0.35 26.2-0.15L26.2-0.15Q26.2 0.5 25.55 0.5L25.55 0.5Q24.9 0.5 24.9-0.15L24.9-0.15Q24.9-0.4 25.05-0.55L25.05-0.55 25.05-1.6Q24.4-0.65 23.4-0.08 22.4 0.5 20.9 0.5L20.9 0.5Q18.95 0.5 17.82-0.35 16.7-1.2 16.22-2.53 15.75-3.85 15.75-5.25L15.75-5.25 15.75-9.3Q15.75-10.75 16.2-12.05 16.65-13.35 18.02-14.2 19.4-15.05 22.1-15.05L22.1-15.05 25.05-15.05 25.05-19.75Q25.05-20.9 24.67-21.98 24.3-23.05 23.4-23.78 22.5-24.5 20.9-24.5L20.9-24.5Q18.65-24.5 17.7-23.15 16.75-21.8 16.7-20.2L16.7-20.2Q16.85-20 16.85-19.8L16.85-19.8Q16.85-19.2 16.2-19.2L16.2-19.2Q15.55-19.2 15.55-19.8L15.55-19.8Q15.55-20.1 15.7-20.25L15.7-20.25Q15.8-21.6 16.32-22.8 16.85-24 17.95-24.75 19.05-25.5 20.9-25.5L20.9-25.5Q22.85-25.5 23.97-24.65 25.1-23.8 25.57-22.5 26.05-21.2 26.05-19.75L26.05-19.75ZM16.75-9.3L16.75-5.25Q16.75-4.1 17.1-3 17.45-1.9 18.37-1.2 19.3-0.5 20.9-0.5L20.9-0.5Q22.5-0.5 23.37-1.15 24.25-1.8 24.62-2.8 25-3.8 25.05-4.9L25.05-4.9 25.05-14.05 22.1-14.05Q19.75-14.05 18.6-13.35 17.45-12.65 17.1-11.55 16.75-10.45 16.75-9.3L16.75-9.3ZM30.95-19.25L30.95-0.55Q31.09-0.4 31.09-0.15L31.09-0.15Q31.09 0.5 30.45 0.5L30.45 0.5Q29.8 0.5 29.8-0.15L29.8-0.15Q29.8-0.4 29.95-0.55L29.95-0.55 29.95-24.4Q29.8-24.65 29.8-24.85L29.8-24.85Q29.8-25.5 30.45-25.5L30.45-25.5Q31.09-25.5 31.09-24.85L31.09-24.85Q31.09-24.65 30.95-24.4L30.95-24.4 30.95-22.65Q31.64-23.8 32.62-24.4 33.59-25 35.09-25L35.09-25 35.95-25Q36.2-25.15 36.4-25.15L36.4-25.15Q37.05-25.15 37.05-24.5L37.05-24.5Q37.05-23.85 36.4-23.85L36.4-23.85Q36.2-23.85 35.95-24L35.95-24 35.09-24Q33-24 31.97-22.5 30.95-21 30.95-19.25L30.95-19.25ZM42.29-24L42.29-5.4Q42.29-3.65 43.14-2.2 43.99-0.75 46.19-0.65L46.19-0.65Q46.44-0.8 46.64-0.8L46.64-0.8Q47.29-0.8 47.29-0.15L47.29-0.15Q47.29 0.5 46.64 0.5L46.64 0.5Q46.44 0.5 46.19 0.35L46.19 0.35Q44.34 0.25 43.27-0.58 42.19-1.4 41.74-2.7 41.29-4 41.29-5.4L41.29-5.4 41.29-24 39.04-24Q38.89-23.85 38.64-23.85L38.64-23.85Q37.99-23.85 37.99-24.5L37.99-24.5Q37.99-25.15 38.64-25.15L38.64-25.15Q38.89-25.15 39.04-25L39.04-25 41.29-25 41.29-32.45Q41.14-32.7 41.14-32.9L41.14-32.9Q41.14-33.55 41.79-33.55L41.79-33.55Q42.44-33.55 42.44-32.9L42.44-32.9Q42.44-32.75 42.29-32.45L42.29-32.45 42.29-25 46.19-25Q46.44-25.15 46.64-25.15L46.64-25.15Q47.29-25.15 47.29-24.5L47.29-24.5Q47.29-23.85 46.64-23.85L46.64-23.85Q46.44-23.85 46.19-24L46.19-24 42.29-24ZM59.04-19.75L59.04-14.05 49.74-14.05 49.74-5.25Q49.74-4.1 50.12-3 50.49-1.9 51.42-1.2 52.34-0.5 53.89-0.5L53.89-0.5Q56.24-0.5 57.12-1.83 57.99-3.15 58.04-4.8L58.04-4.8Q57.89-4.95 57.89-5.2L57.89-5.2Q57.89-5.85 58.54-5.85L58.54-5.85Q59.19-5.85 59.19-5.2L59.19-5.2Q59.19-4.95 59.04-4.8L59.04-4.8Q58.94-3.45 58.44-2.25 57.94-1.05 56.87-0.28 55.79 0.5 53.89 0.5L53.89 0.5Q51.94 0.5 50.82-0.35 49.69-1.2 49.22-2.53 48.74-3.85 48.74-5.25L48.74-5.25 48.74-19.75Q48.74-21.2 49.22-22.5 49.69-23.8 50.82-24.65 51.94-25.5 53.89-25.5L53.89-25.5Q55.84-25.5 56.97-24.65 58.09-23.8 58.57-22.5 59.04-21.2 59.04-19.75L59.04-19.75ZM49.74-15.05L58.04-15.05 58.04-19.75Q58.04-20.9 57.69-21.98 57.34-23.05 56.44-23.78 55.54-24.5 53.89-24.5L53.89-24.5Q52.34-24.5 51.42-23.78 50.49-23.05 50.12-21.98 49.74-20.9 49.74-19.75L49.74-19.75 49.74-15.05ZM63.54-19.25L63.54-0.55Q63.69-0.4 63.69-0.15L63.69-0.15Q63.69 0.5 63.04 0.5L63.04 0.5Q62.39 0.5 62.39-0.15L62.39-0.15Q62.39-0.4 62.54-0.55L62.54-0.55 62.54-24.4Q62.39-24.65 62.39-24.85L62.39-24.85Q62.39-25.5 63.04-25.5L63.04-25.5Q63.69-25.5 63.69-24.85L63.69-24.85Q63.69-24.65 63.54-24.4L63.54-24.4 63.54-22.65Q64.24-23.8 65.21-24.4 66.19-25 67.69-25L67.69-25 68.54-25Q68.79-25.15 68.99-25.15L68.99-25.15Q69.64-25.15 69.64-24.5L69.64-24.5Q69.64-23.85 68.99-23.85L68.99-23.85Q68.79-23.85 68.54-24L68.54-24 67.69-24Q65.59-24 64.56-22.5 63.54-21 63.54-19.25L63.54-19.25ZM90.78-34.4L90.78-0.55Q90.93-0.4 90.93-0.15L90.93-0.15Q90.93 0.5 90.28 0.5L90.28 0.5Q89.63 0.5 89.63-0.15L89.63-0.15Q89.63-0.4 89.78-0.55L89.78-0.55 89.78-24 81.38-24 81.38-0.55Q81.53-0.4 81.53-0.15L81.53-0.15Q81.53 0.5 80.88 0.5L80.88 0.5Q80.23 0.5 80.23-0.15L80.23-0.15Q80.23-0.4 80.38-0.55L80.38-0.55 80.38-34.4Q80.23-34.65 80.23-34.85L80.23-34.85Q80.23-35.5 80.88-35.5L80.88-35.5Q81.53-35.5 81.53-34.85L81.53-34.85Q81.53-34.65 81.38-34.4L81.38-34.4 81.38-25 89.78-25 89.78-34.4Q89.63-34.65 89.63-34.85L89.63-34.85Q89.63-35.5 90.28-35.5L90.28-35.5Q90.93-35.5 90.93-34.85L90.93-34.85Q90.93-34.65 90.78-34.4L90.78-34.4ZM96.08-32.45L96.08-31Q96.23-30.85 96.23-30.6L96.23-30.6Q96.23-29.95 95.58-29.95L95.58-29.95Q94.93-29.95 94.93-30.6L94.93-30.6Q94.93-30.85 95.08-31L95.08-31 95.08-32.45Q94.93-32.7 94.93-32.9L94.93-32.9Q94.93-33.55 95.58-33.55L95.58-33.55Q96.23-33.55 96.23-32.9L96.23-32.9Q96.23-32.7 96.08-32.45L96.08-32.45ZM96.08-24.4L96.08-0.55Q96.23-0.4 96.23-0.15L96.23-0.15Q96.23 0.5 95.58 0.5L95.58 0.5Q94.93 0.5 94.93-0.15L94.93-0.15Q94.93-0.4 95.08-0.55L95.08-0.55 95.08-24.4Q94.93-24.65 94.93-24.85L94.93-24.85Q94.93-25.5 95.58-25.5L95.58-25.5Q96.23-25.5 96.23-24.85L96.23-24.85Q96.23-24.65 96.08-24.4L96.08-24.4ZM110.18-24.35L105.03-0.45Q105.13-0.3 105.13-0.15L105.13-0.15Q105.13 0.5 104.48 0.5L104.48 0.5Q103.83 0.5 103.83-0.15L103.83-0.15Q103.83-0.35 103.88-0.45L103.88-0.45 98.73-24.35Q98.53-24.5 98.53-24.85L98.53-24.85Q98.53-25.5 99.18-25.5L99.18-25.5Q99.83-25.5 99.83-24.85L99.83-24.85Q99.83-24.8 99.73-24.5L99.73-24.5 104.48-2.6 109.18-24.5Q109.18-24.55 109.15-24.6 109.13-24.65 109.13-24.7L109.13-24.7 109.13-24.85Q109.13-25.5 109.78-25.5L109.78-25.5Q110.43-25.5 110.43-24.85L110.43-24.85Q110.43-24.5 110.18-24.35L110.18-24.35ZM122.83-19.75L122.83-14.05 113.53-14.05 113.53-5.25Q113.53-4.1 113.9-3 114.28-1.9 115.2-1.2 116.13-0.5 117.68-0.5L117.68-0.5Q120.03-0.5 120.9-1.83 121.78-3.15 121.83-4.8L121.83-4.8Q121.68-4.95 121.68-5.2L121.68-5.2Q121.68-5.85 122.33-5.85L122.33-5.85Q122.98-5.85 122.98-5.2L122.98-5.2Q122.98-4.95 122.83-4.8L122.83-4.8Q122.73-3.45 122.23-2.25 121.73-1.05 120.65-0.28 119.58 0.5 117.68 0.5L117.68 0.5Q115.73 0.5 114.6-0.35 113.48-1.2 113-2.53 112.53-3.85 112.53-5.25L112.53-5.25 112.53-19.75Q112.53-21.2 113-22.5 113.48-23.8 114.6-24.65 115.73-25.5 117.68-25.5L117.68-25.5Q119.63-25.5 120.75-24.65 121.88-23.8 122.35-22.5 122.83-21.2 122.83-19.75L122.83-19.75ZM113.53-15.05L121.83-15.05 121.83-19.75Q121.83-20.9 121.48-21.98 121.13-23.05 120.23-23.78 119.33-24.5 117.68-24.5L117.68-24.5Q116.13-24.5 115.2-23.78 114.28-23.05 113.9-21.98 113.53-20.9 113.53-19.75L113.53-19.75 113.53-15.05Z" opacity="1" transform="matrix(1,0,0,1,0,0)" fill="#000000" class="wordmark-text-0" data-fill-palette-color="primary" id="text-0"></path></svg></g></svg></g><g transform="matrix(1,0,0,1,0,145.63624379577988)"><svg viewBox="0 0 232.209792 54.45654056589344" height="54.45654056589344" width="232.209792"><g transform="matrix(1,0,0,1,0,0)"><svg width="232.209792" viewBox="2.15 -35.5 196.10999999999999 46" height="54.45654056589344" data-palette-color="#9c9a40"><path d="M12.55-19.3L12.55-5.4Q12.55-2.85 11.23-1.43 9.9 0 7.3 0L7.3 0 2.15 0 2.15-35 7.2-35Q10-35 11.05-33.48 12.1-31.95 12.1-29.8L12.1-29.8Q12.1-28.25 11.6-26.7 11.1-25.15 9.65-24.5L9.65-24.5Q11.25-23.8 11.9-22.43 12.55-21.05 12.55-19.3L12.55-19.3ZM3.15-25L7.2-25Q8.8-25 9.65-25.7 10.5-26.4 10.8-27.53 11.1-28.65 11.1-29.8L11.1-29.8Q11.1-31.55 10.25-32.77 9.4-34 7.2-34L7.2-34 3.15-34 3.15-25ZM3.15-1L7.3-1Q9.45-1 10.5-2.2 11.55-3.4 11.55-5.45L11.55-5.45 11.55-19.3Q11.55-20.5 11.15-21.58 10.75-22.65 9.83-23.33 8.9-24 7.2-24L7.2-24 3.15-24 3.15-1ZM26.4-24.4L26.4-0.55Q26.55-0.4 26.55-0.15L26.55-0.15Q26.55 0.5 25.9 0.5L25.9 0.5Q25.25 0.5 25.25-0.15L25.25-0.15Q25.25-0.4 25.4-0.55L25.4-0.55 25.4-1.85Q24.75-0.65 23.77-0.08 22.8 0.5 21.25 0.5L21.25 0.5Q19.3 0.5 18.17-0.35 17.05-1.2 16.57-2.53 16.1-3.85 16.1-5.25L16.1-5.25 16.1-24.4Q15.95-24.65 15.95-24.85L15.95-24.85Q15.95-25.5 16.6-25.5L16.6-25.5Q17.25-25.5 17.25-24.85L17.25-24.85Q17.25-24.65 17.1-24.4L17.1-24.4 17.1-5.25Q17.1-4.1 17.47-3 17.85-1.9 18.75-1.2 19.65-0.5 21.25-0.5L21.25-0.5Q23.45-0.5 24.42-1.9 25.4-3.3 25.4-5L25.4-5 25.4-24.4Q25.25-24.65 25.25-24.85L25.25-24.85Q25.25-25.5 25.9-25.5L25.9-25.5Q26.55-25.5 26.55-24.85L26.55-24.85Q26.55-24.65 26.4-24.4L26.4-24.4ZM35.24-0.3L34.2 4.6Q33.89 5.9 33.45 7.18 32.99 8.45 32.09 9.3 31.2 10.15 29.5 10.3L29.5 10.3Q29.39 10.35 29.29 10.43 29.2 10.5 29.04 10.5L29.04 10.5Q28.39 10.5 28.39 9.85L28.39 9.85Q28.39 9.2 29.04 9.2L29.04 9.2Q29.25 9.2 29.45 9.3L29.45 9.3Q30.84 9.2 31.57 8.47 32.3 7.75 32.62 6.7 32.95 5.65 33.2 4.6L33.2 4.6 34.2-0.2 29-24.35Q28.79-24.5 28.79-24.85L28.79-24.85Q28.79-25.5 29.45-25.5L29.45-25.5Q30.09-25.5 30.09-24.85L30.09-24.85Q30.09-24.65 30-24.5L30-24.5 34.74-2.6 39.45-24.5Q39.45-24.55 39.42-24.6 39.39-24.65 39.39-24.7L39.39-24.7 39.39-24.85Q39.39-25.5 40.05-25.5L40.05-25.5Q40.7-25.5 40.7-24.85L40.7-24.85Q40.7-24.5 40.45-24.35L40.45-24.35 35.24-0.3ZM42.94 0.15L42.94 0.15Q42.64 0.5 42.09 0.5L42.09 0.5Q41.59 0.5 41.29 0.18 40.99-0.15 40.99-0.6L40.99-0.6Q40.99-1.1 41.29-1.43 41.59-1.75 42.09-1.75L42.09-1.75Q42.64-1.75 42.94-1.43 43.24-1.1 43.24-0.6L43.24-0.6Q43.24-0.15 42.94 0.15ZM64.69-11.3L64.69-5.05Q64.69-3.65 64.19-2.38 63.69-1.1 62.56-0.3 61.44 0.5 59.44 0.5L59.44 0.5Q56.69 0.5 55.54-1.05 54.39-2.6 54.24-4.6L54.24-4.6Q54.09-4.75 54.09-5.05L54.09-5.05Q54.09-5.7 54.74-5.7L54.74-5.7Q55.39-5.7 55.39-5.05L55.39-5.05Q55.39-4.75 55.24-4.6L55.24-4.6Q55.29-2.9 56.24-1.7 57.19-0.5 59.44-0.5L59.44-0.5Q61.84-0.5 62.76-1.9 63.69-3.3 63.69-5.05L63.69-5.05 63.69-11.3Q63.69-13.95 61.74-15.75L61.74-15.75 55.89-20.95Q54.64-22.05 54.34-23.2 54.04-24.35 54.04-25.5L54.04-25.5 54.04-29.8Q54.04-31.25 54.54-32.55 55.04-33.85 56.19-34.68 57.34-35.5 59.29-35.5L59.29-35.5Q62.09-35.5 63.24-33.9 64.39-32.3 64.49-30.25L64.49-30.25Q64.64-30.1 64.64-29.8L64.64-29.8Q64.64-29.15 63.99-29.15L63.99-29.15Q63.34-29.15 63.34-29.8L63.34-29.8Q63.34-30.05 63.49-30.2L63.49-30.2Q63.39-31.8 62.46-33.15 61.54-34.5 59.29-34.5L59.29-34.5Q57.69-34.5 56.76-33.8 55.84-33.1 55.44-32.02 55.04-30.95 55.04-29.8L55.04-29.8 55.04-25.5Q55.09-24.25 55.41-23.28 55.74-22.3 56.59-21.55L56.59-21.55 62.49-16.35Q63.79-15.1 64.24-13.83 64.69-12.55 64.69-11.3L64.69-11.3ZM78.14-19.75L78.14-14.05 68.84-14.05 68.84-5.25Q68.84-4.1 69.21-3 69.59-1.9 70.51-1.2 71.44-0.5 72.99-0.5L72.99-0.5Q75.34-0.5 76.21-1.83 77.09-3.15 77.14-4.8L77.14-4.8Q76.99-4.95 76.99-5.2L76.99-5.2Q76.99-5.85 77.64-5.85L77.64-5.85Q78.29-5.85 78.29-5.2L78.29-5.2Q78.29-4.95 78.14-4.8L78.14-4.8Q78.04-3.45 77.54-2.25 77.04-1.05 75.96-0.28 74.89 0.5 72.99 0.5L72.99 0.5Q71.04 0.5 69.91-0.35 68.79-1.2 68.31-2.53 67.84-3.85 67.84-5.25L67.84-5.25 67.84-19.75Q67.84-21.2 68.31-22.5 68.79-23.8 69.91-24.65 71.04-25.5 72.99-25.5L72.99-25.5Q74.94-25.5 76.06-24.65 77.19-23.8 77.66-22.5 78.14-21.2 78.14-19.75L78.14-19.75ZM68.84-15.05L77.14-15.05 77.14-19.75Q77.14-20.9 76.79-21.98 76.44-23.05 75.54-23.78 74.64-24.5 72.99-24.5L72.99-24.5Q71.44-24.5 70.51-23.78 69.59-23.05 69.21-21.98 68.84-20.9 68.84-19.75L68.84-19.75 68.84-15.05ZM82.78-34.4L82.78-0.55Q82.93-0.4 82.93-0.15L82.93-0.15Q82.93 0.5 82.28 0.5L82.28 0.5Q81.63 0.5 81.63-0.15L81.63-0.15Q81.63-0.4 81.78-0.55L81.78-0.55 81.78-34.4Q81.63-34.65 81.63-34.85L81.63-34.85Q81.63-35.5 82.28-35.5L82.28-35.5Q82.93-35.5 82.93-34.85L82.93-34.85Q82.93-34.65 82.78-34.4L82.78-34.4ZM88.03-34.4L88.03-0.55Q88.18-0.4 88.18-0.15L88.18-0.15Q88.18 0.5 87.53 0.5L87.53 0.5Q86.88 0.5 86.88-0.15L86.88-0.15Q86.88-0.4 87.03-0.55L87.03-0.55 87.03-34.4Q86.88-34.65 86.88-34.85L86.88-34.85Q86.88-35.5 87.53-35.5L87.53-35.5Q88.18-35.5 88.18-34.85L88.18-34.85Q88.18-34.65 88.03-34.4L88.03-34.4ZM93.33 0.15L93.33 0.15Q93.03 0.5 92.48 0.5L92.48 0.5Q91.98 0.5 91.68 0.18 91.38-0.15 91.38-0.6L91.38-0.6Q91.38-1.1 91.68-1.43 91.98-1.75 92.48-1.75L92.48-1.75Q93.03-1.75 93.33-1.43 93.63-1.1 93.63-0.6L93.63-0.6Q93.63-0.15 93.33 0.15ZM106.17-29.8L106.17-5.05Q106.17-3.3 107.07-1.9 107.97-0.5 110.37-0.5L110.37-0.5Q112.67-0.5 113.6-1.7 114.52-2.9 114.57-4.6L114.57-4.6Q114.42-4.75 114.42-5.05L114.42-5.05Q114.42-5.7 115.07-5.7L115.07-5.7Q115.72-5.7 115.72-5.05L115.72-5.05Q115.72-4.75 115.57-4.6L115.57-4.6Q115.52-2.6 114.35-1.05 113.17 0.5 110.37 0.5L110.37 0.5Q108.37 0.5 107.25-0.3 106.12-1.1 105.65-2.38 105.17-3.65 105.17-5.05L105.17-5.05 105.17-29.8Q105.17-31.25 105.65-32.55 106.12-33.85 107.25-34.68 108.37-35.5 110.37-35.5L110.37-35.5Q113.17-35.5 114.35-33.9 115.52-32.3 115.57-30.25L115.57-30.25Q115.72-30.1 115.72-29.8L115.72-29.8Q115.72-29.15 115.07-29.15L115.07-29.15Q114.42-29.15 114.42-29.8L114.42-29.8Q114.42-30.05 114.57-30.2L114.57-30.2Q114.52-31.8 113.6-33.15 112.67-34.5 110.37-34.5L110.37-34.5Q108.77-34.5 107.85-33.8 106.92-33.1 106.55-32.02 106.17-30.95 106.17-29.8L106.17-29.8ZM128.37-19.75L128.37-5.25Q128.37-3.85 127.9-2.53 127.42-1.2 126.3-0.35 125.17 0.5 123.22 0.5L123.22 0.5Q121.27 0.5 120.15-0.35 119.02-1.2 118.55-2.53 118.07-3.85 118.07-5.25L118.07-5.25 118.07-19.75Q118.07-21.2 118.55-22.5 119.02-23.8 120.15-24.65 121.27-25.5 123.22-25.5L123.22-25.5Q125.17-25.5 126.3-24.65 127.42-23.8 127.9-22.5 128.37-21.2 128.37-19.75L128.37-19.75ZM119.07-19.75L119.07-5.25Q119.07-4.1 119.45-3 119.82-1.9 120.75-1.2 121.67-0.5 123.22-0.5L123.22-0.5Q124.87-0.5 125.77-1.2 126.67-1.9 127.02-3 127.37-4.1 127.37-5.25L127.37-5.25 127.37-19.75Q127.37-20.9 127.02-21.98 126.67-23.05 125.77-23.78 124.87-24.5 123.22-24.5L123.22-24.5Q121.67-24.5 120.75-23.78 119.82-23.05 119.45-21.98 119.07-20.9 119.07-19.75L119.07-19.75ZM142.42-19.75L142.42-0.55Q142.57-0.4 142.57-0.15L142.57-0.15Q142.57 0.5 141.92 0.5L141.92 0.5Q141.27 0.5 141.27-0.15L141.27-0.15Q141.27-0.4 141.42-0.55L141.42-0.55 141.42-19.75Q141.42-20.9 141.07-21.98 140.72-23.05 139.82-23.78 138.92-24.5 137.27-24.5L137.27-24.5Q135.87-24.5 134.94-23.78 134.02-23.05 133.57-21.98 133.12-20.9 133.12-19.75L133.12-19.75 133.12-0.55Q133.27-0.4 133.27-0.15L133.27-0.15Q133.27 0.5 132.62 0.5L132.62 0.5Q131.97 0.5 131.97-0.15L131.97-0.15Q131.97-0.4 132.12-0.55L132.12-0.55 132.12-24.4Q131.97-24.65 131.97-24.85L131.97-24.85Q131.97-25.5 132.62-25.5L132.62-25.5Q133.27-25.5 133.27-24.85L133.27-24.85Q133.27-24.65 133.12-24.4L133.12-24.4 133.12-23.15Q134.42-25.5 137.27-25.5L137.27-25.5Q139.27-25.5 140.39-24.65 141.52-23.8 141.97-22.5 142.42-21.2 142.42-19.75L142.42-19.75ZM156.62-19.75L156.62-0.55Q156.77-0.4 156.77-0.15L156.77-0.15Q156.77 0.5 156.12 0.5L156.12 0.5Q155.47 0.5 155.47-0.15L155.47-0.15Q155.47-0.4 155.62-0.55L155.62-0.55 155.62-19.75Q155.62-20.9 155.27-21.98 154.92-23.05 154.02-23.78 153.12-24.5 151.47-24.5L151.47-24.5Q150.07-24.5 149.14-23.78 148.22-23.05 147.77-21.98 147.32-20.9 147.32-19.75L147.32-19.75 147.32-0.55Q147.47-0.4 147.47-0.15L147.47-0.15Q147.47 0.5 146.82 0.5L146.82 0.5Q146.17 0.5 146.17-0.15L146.17-0.15Q146.17-0.4 146.32-0.55L146.32-0.55 146.32-24.4Q146.17-24.65 146.17-24.85L146.17-24.85Q146.17-25.5 146.82-25.5L146.82-25.5Q147.47-25.5 147.47-24.85L147.47-24.85Q147.47-24.65 147.32-24.4L147.32-24.4 147.32-23.15Q148.62-25.5 151.47-25.5L151.47-25.5Q153.47-25.5 154.59-24.65 155.72-23.8 156.17-22.5 156.62-21.2 156.62-19.75L156.62-19.75ZM170.56-19.75L170.56-14.05 161.26-14.05 161.26-5.25Q161.26-4.1 161.64-3 162.01-1.9 162.94-1.2 163.86-0.5 165.41-0.5L165.41-0.5Q167.76-0.5 168.64-1.83 169.51-3.15 169.56-4.8L169.56-4.8Q169.41-4.95 169.41-5.2L169.41-5.2Q169.41-5.85 170.06-5.85L170.06-5.85Q170.71-5.85 170.71-5.2L170.71-5.2Q170.71-4.95 170.56-4.8L170.56-4.8Q170.46-3.45 169.96-2.25 169.46-1.05 168.39-0.28 167.31 0.5 165.41 0.5L165.41 0.5Q163.46 0.5 162.34-0.35 161.21-1.2 160.74-2.53 160.26-3.85 160.26-5.25L160.26-5.25 160.26-19.75Q160.26-21.2 160.74-22.5 161.21-23.8 162.34-24.65 163.46-25.5 165.41-25.5L165.41-25.5Q167.36-25.5 168.49-24.65 169.61-23.8 170.09-22.5 170.56-21.2 170.56-19.75L170.56-19.75ZM161.26-15.05L169.56-15.05 169.56-19.75Q169.56-20.9 169.21-21.98 168.86-23.05 167.96-23.78 167.06-24.5 165.41-24.5L165.41-24.5Q163.86-24.5 162.94-23.78 162.01-23.05 161.64-21.98 161.26-20.9 161.26-19.75L161.26-19.75 161.26-15.05ZM174.81-19.75L174.81-5.25Q174.81-4.1 175.19-3 175.56-1.9 176.49-1.2 177.41-0.5 178.96-0.5L178.96-0.5Q181.26-0.5 182.19-1.8 183.11-3.1 183.16-4.75L183.16-4.75Q183.01-4.9 183.01-5.2L183.01-5.2Q183.01-5.8 183.66-5.8L183.66-5.8Q184.31-5.8 184.31-5.2L184.31-5.2Q184.31-4.9 184.16-4.75L184.16-4.75Q184.06-3.4 183.54-2.2 183.01-1 181.91-0.25 180.81 0.5 178.96 0.5L178.96 0.5Q177.01 0.5 175.89-0.35 174.76-1.2 174.29-2.53 173.81-3.85 173.81-5.25L173.81-5.25 173.81-19.75Q173.81-21.2 174.29-22.5 174.76-23.8 175.89-24.65 177.01-25.5 178.96-25.5L178.96-25.5Q180.81-25.5 181.91-24.75 183.01-24 183.54-22.8 184.06-21.6 184.16-20.25L184.16-20.25Q184.31-20.1 184.31-19.8L184.31-19.8Q184.31-19.2 183.66-19.2L183.66-19.2Q183.01-19.2 183.01-19.8L183.01-19.8Q183.01-20.05 183.16-20.2L183.16-20.2Q183.11-21.8 182.19-23.15 181.26-24.5 178.96-24.5L178.96-24.5Q177.41-24.5 176.49-23.78 175.56-23.05 175.19-21.98 174.81-20.9 174.81-19.75L174.81-19.75ZM189.76-24L189.76-5.4Q189.76-3.65 190.61-2.2 191.46-0.75 193.66-0.65L193.66-0.65Q193.91-0.8 194.11-0.8L194.11-0.8Q194.76-0.8 194.76-0.15L194.76-0.15Q194.76 0.5 194.11 0.5L194.11 0.5Q193.91 0.5 193.66 0.35L193.66 0.35Q191.81 0.25 190.73-0.58 189.66-1.4 189.21-2.7 188.76-4 188.76-5.4L188.76-5.4 188.76-24 186.51-24Q186.36-23.85 186.11-23.85L186.11-23.85Q185.46-23.85 185.46-24.5L185.46-24.5Q185.46-25.15 186.11-25.15L186.11-25.15Q186.36-25.15 186.51-25L186.51-25 188.76-25 188.76-32.45Q188.61-32.7 188.61-32.9L188.61-32.9Q188.61-33.55 189.26-33.55L189.26-33.55Q189.91-33.55 189.91-32.9L189.91-32.9Q189.91-32.75 189.76-32.45L189.76-32.45 189.76-25 193.66-25Q193.91-25.15 194.11-25.15L194.11-25.15Q194.76-25.15 194.76-24.5L194.76-24.5Q194.76-23.85 194.11-23.85L194.11-23.85Q193.91-23.85 193.66-24L193.66-24 189.76-24ZM197.96 0.15L197.96 0.15Q197.66 0.5 197.11 0.5L197.11 0.5Q196.61 0.5 196.31 0.18 196.01-0.15 196.01-0.6L196.01-0.6Q196.01-1.1 196.31-1.43 196.61-1.75 197.11-1.75L197.11-1.75Q197.66-1.75 197.96-1.43 198.26-1.1 198.26-0.6L198.26-0.6Q198.26-0.15 197.96 0.15Z" opacity="1" transform="matrix(1,0,0,1,0,0)" fill="#000000" class="slogan-text-1" data-fill-palette-color="secondary" id="text-1"></path></svg></g></svg></g></svg></g></svg></g><g><svg viewBox="0 0 217.54391039999996 222.7815710717102" height="222.7815710717102" width="217.54391039999996"><g><svg xmlns="http://www.w3.org/2000/svg" xmlns:xlink="http://www.w3.org/1999/xlink" version="1.1" x="0" y="0" viewBox="38.5 18.138287884315954 347.3 355.66171211568405" style="enable-background:new 0 0 417 402;" xml:space="preserve" height="222.7815710717102" width="217.54391039999996" class="icon-icon-0" data-fill-palette-color="accent" id="icon-0"><polygon points="211.6,213.6 165,213.6 141.7,253.9 165,294.2 211.6,294.2 234.8,253.9 " fill="#000000" data-fill-palette-color="accent"></polygon><polygon points="136.1,170.3 89.5,170.3 66.2,210.6 89.5,250.9 136.1,250.9 159.3,210.6 " fill="#000000" data-fill-palette-color="accent"></polygon><polygon points="211.6,127 165,127 141.7,167.3 165,207.6 211.6,207.6 234.8,167.3 " fill="#000000" data-fill-palette-color="accent"></polygon><polygon points="362.5,213.6 316,213.6 292.7,253.9 316,294.2 362.5,294.2 385.8,253.9 " fill="#000000" data-fill-palette-color="accent"></polygon><polygon points="287,170.3 240.5,170.3 217.2,210.6 240.5,250.9 287,250.9 310.3,210.6 " fill="#000000" data-fill-palette-color="accent"></polygon><polygon points="362.5,127 316,127 292.7,167.3 316,207.6 362.5,207.6 385.8,167.3 " fill="#000000" data-fill-palette-color="accent"></polygon><polygon points="287,256.9 240.5,256.9 217.2,297.2 240.5,337.5 287,337.5 310.3,297.2 " fill="#000000" data-fill-palette-color="accent"></polygon><rect x="266.2" y="61.2" width="8.7" height="60.5" fill="#000000" data-fill-palette-color="accent"></rect><path d="M291.5 61.8v59.4c13.9-2.7 24.4-15 24.4-29.7v0C315.9 76.8 305.4 64.5 291.5 61.8z" fill="#000000" data-fill-palette-color="accent"></path><path d="M323.7 87.9l-5.5-3.1c0.5 2.2 0.7 4.5 0.7 6.8s-0.2 4.6-0.7 6.8l5.5-3.1 6.3-3.6L323.7 87.9z" fill="#000000" data-fill-palette-color="accent"></path><path d="M287.5 61.3c-0.6 0-1.2-0.1-1.9-0.1h-6.8v60.5h6.8c0.6 0 1.3 0 1.9-0.1V61.3z" fill="#000000" data-fill-palette-color="accent"></path><path d="M251.2 61.2c-2.8 0-5.5 0.4-8 1.1L233.2 52c-0.4-0.4-0.9-0.7-1.4-0.8l-7.1-1.9c-1.6-0.4-3.2 0.5-3.7 2.1-0.4 1.6 0.5 3.2 2.1 3.7l6.3 1.7 7.7 8c-1.4 0.7-2.7 1.5-3.9 2.5l-11.8-7.1c-0.5-0.3-1-0.4-1.5-0.4h-7.3c-1.7 0-3 1.3-3 3s1.3 3 3 3h6.5l9.6 5.8c-4.8 5.4-7.7 12.4-7.7 20.1v0c0 16.6 13.6 30.3 30.3 30.3h11.1V61.2H251.2zM236.7 89.6c-2.7 0-4.9-2.2-4.9-4.9s2.2-4.9 4.9-4.9 4.9 2.2 4.9 4.9S239.4 89.6 236.7 89.6z" fill="#000000" data-fill-palette-color="accent"></path><path d="M294.2 21.7c11-6.2 23.9-4.1 28.8 4.7s0 20.9-11 27c-13 7.3-45.8 4.8-45.8 4.8S277.7 30.9 294.2 21.7z" fill="#000000" data-fill-palette-color="accent"></path><g fill="#3b4131" data-fill-palette-color="accent"><path d="M263.4 57.1c0.5-1.2 12.1-28.4 29.3-38 0.6-0.3 1.2-0.6 1.7-0.9-4.2 0-8.7 1.2-12.9 3.5-16.5 9.3-28 36.5-28 36.5s3.8 0.3 9.2 0.4L263.4 57.1z" fill="#000000" data-fill-palette-color="accent"></path></g><rect x="93.5" y="313.3" width="8.7" height="60.5" fill="#000000" data-fill-palette-color="accent"></rect><path d="M77 313.8v59.4c-13.9-2.7-24.4-15-24.4-29.7v0C52.5 328.9 63.1 316.6 77 313.8z" fill="#000000" data-fill-palette-color="accent"></path><path d="M44.8 339.9l5.5-3.1c-0.5 2.2-0.7 4.5-0.7 6.8s0.2 4.6 0.7 6.8l-5.5-3.1-6.3-3.6L44.8 339.9z" fill="#000000" data-fill-palette-color="accent"></path><path d="M80.9 313.3c0.6 0 1.2-0.1 1.9-0.1h6.8v60.5h-6.8c-0.6 0-1.3 0-1.9-0.1V313.3z" fill="#000000" data-fill-palette-color="accent"></path><path d="M106.1 313.3v60.5h11.1c16.6 0 30.3-13.6 30.3-30.3v0c0-7.7-2.9-14.7-7.7-20.1l9.6-5.8h6.5c1.7 0 3-1.3 3-3s-1.3-3-3-3h-7.3c-0.5 0-1.1 0.1-1.5 0.4l-11.8 7.1c-1.2-0.9-2.5-1.7-3.9-2.5l7.7-8 6.3-1.7c1.6-0.4 2.5-2.1 2.1-3.7-0.4-1.6-2.1-2.5-3.7-2.1l-7.1 1.9c-0.5 0.1-1 0.4-1.4 0.8l-9.9 10.4c-2.6-0.7-5.2-1.1-8-1.1H106.1zM126.8 336.7c0-2.7 2.2-4.9 4.9-4.9s4.9 2.2 4.9 4.9-2.2 4.9-4.9 4.9S126.8 339.4 126.8 336.7z" fill="#000000" data-fill-palette-color="accent"></path><path d="M74.2 273.7c-11-6.2-23.9-4.1-28.8 4.7-4.9 8.8 0 20.9 11 27 13 7.3 45.8 4.8 45.8 4.8S90.7 283 74.2 273.7z" fill="#000000" data-fill-palette-color="accent"></path><g fill="#3b4131" data-fill-palette-color="accent"><path d="M105 309.1c-0.5-1.2-12.1-28.4-29.3-38-0.6-0.3-1.2-0.6-1.7-0.9 4.2 0 8.7 1.2 12.9 3.5 16.5 9.3 28 36.5 28 36.5s-3.8 0.3-9.2 0.4L105 309.1z" fill="#000000" data-fill-palette-color="accent"></path></g></svg></g></svg></g></svg></g><defs></defs></svg><rect width="395.52" height="137.490236254542" fill="none" stroke="none" visibility="hidden"></rect></g></svg></g></svg>